{"title":"A.Sisters.Secret.2009.SWESUB.DVDRip.XviD.AC3-Zen_Bud","uid":5764750,"size":1470005596,"categoryP":"video","categoryS":"movies","magnet":"?xt=urn:btih:31e6f83cbea2e8be6ee3ee5eefbad9b813db89b3&amp;dn=A.Sisters.Secret.2009.SWESUB.DVDRip.XviD.AC3-Zen_Bud&amp;tr=udp%3A%2F%2Ftracker.openbittorrent.com%3A80&amp;tr=udp%3A%2F%2Fopen.demonii.com%3A1337&amp;tr=udp%3A%2F%2Ftracker.coppersurfer.tk%3A6969&amp;tr=udp%3A%2F%2Fexodus.desync.com%3A6969","seeders":0,"leechers":1,"uploader":"Zen_Bud","files":-1,"time":1281859957,"description":"General\nComplete name                    : A.Sisters.Secret.2009.avi\nFormat                           : AVI\nFile size                        : 1.37 GiB\nDuration                         : 1h 30mn\nOverall bit rate                 : 2 170 Kbps\n\nVideo\n\nFormat                           : MPEG-4 Visual\nCodec ID/Hint                    : XviD\nDuration                         : 1h 30mn\nBit rate                         : 1 711 Kbps\nWidth                            : 720 pixels\nHeight                           : 576 pixels\nDisplay aspect ratio             : 16:9\nStream size                      : 1.08 GiB (79%)\nWriting library                  : XviD 1.1.2 (UTC 2006-11-01)\n\nAudio\n\nFormat                           : AC-3\nDuration                         : 1h 30mn\nBit rate                         : 448 Kbps\nChannel(s)                       : 6 channels\nChannel positions                : Front: L C R, Side: L R, LFE\nSampling rate                    : 48.0 KHz\nStream size                      : 289 MiB (21%)\n\n\n","torrent":{"xt":"urn:btih:31e6f83cbea2e8be6ee3ee5eefbad9b813db89b3","amp;dn":"A.Sisters.Secret.2009.SWESUB.DVDRip.XviD.AC3-Zen_Bud","amp;tr":["udp%3A%2F%2Ftracker.openbittorrent.com%3A80","udp%3A%2F%2Fopen.demonii.com%3A1337","udp%3A%2F%2Ftracker.coppersurfer.tk%3A6969","udp%3A%2F%2Fexodus.desync.com%3A6969"],"infoHash":"31e6f83cbea2e8be6ee3ee5eefbad9b813db89b3","infoHashBuffer":{"type":"Buffer","data":[49,230,248,60,190,162,232,190,110,227,238,94,239,186,217,184,19,219,137,179]},"announce":[],"urlList":[]}}